<?xml version="1.0" encoding="UTF-8"?> <svg xmlns="http://www.w3.org/2000/svg" id="Layer_1" data-name="Layer 1" viewBox="0 0 489.02 434.1"><defs><style> .cls-1 { fill: #edc50d; } .cls-2 { fill: #bf312d; } </style></defs><path d="M428.64,302.28l-2.02-8.28-.11-132.14-.88-1.77-48.32-58.68c-1.37-12.66.26-25.63-.84-38.37L282.92.43c-4.41-1.76-9.29,2.38-13.11,4.46v297.39h22.6v-115.3c8.38-5.37,16.77-10.78,25.31-15.89,1.83-1.09,3.85-2.63,5.93-3.05v134.24h21.27V119.86c10.32-6.73,20.9-13.46,31.9-18.94v201.36h51.84ZM263.83,7.88l-12.63,5.32v289.09h12.63V7.88ZM245.22,16.52l-12.63,5.32v280.45h12.63V16.52ZM226.62,25.82l-11.96,4.65v271.81h11.96V25.82ZM208.67,33.8l-12.63,6.31v262.17h12.63V33.8ZM190.07,302.28V42.44l-12.63,6.31v253.53h12.63ZM172.12,51.74c-4.57.86-8.78,3.99-13.29,5.32v245.22h13.29V51.74ZM150.86,116.87l-51.17,22.6v11.96l51.17-23.26v-11.3ZM150.86,134.81l-51.17,23.26v11.3l51.17-22.6v-11.96ZM150.86,153.42l-51.17,23.59v10.97l51.17-23.59v-10.97ZM150.86,172.03l-91.71,42.2v10.97l91.71-41.87v-11.3ZM150.86,189.97l-91.71,41.87v11.96l91.71-41.87v-11.96ZM150.86,208.58l-91.71,42.2v10.97l91.71-41.87v-11.3ZM150.86,238.48v-11.96l-91.71,41.87v12.63l91.71-42.53ZM150.86,245.13l-91.71,42.86v14.29h91.71v-57.15Z"></path><path class="cls-2" d="M428.64,302.28h-51.84V100.92c-11,5.48-21.58,12.21-31.9,18.94v182.42h-21.27v-134.24c-2.07.42-4.1,1.95-5.93,3.05-8.53,5.11-16.93,10.53-25.31,15.89v115.3h-22.6V4.89c3.82-2.08,8.7-6.22,13.11-4.46l93.55,62.62c1.09,12.74-.53,25.72.84,38.37l48.32,58.68.88,1.77.11,132.14,2.02,8.28Z"></path><polygon class="cls-2" points="263.83 7.88 263.83 302.28 251.21 302.28 251.21 13.2 263.83 7.88"></polygon><polygon class="cls-2" points="245.22 16.52 245.22 302.28 232.6 302.28 232.6 21.84 245.22 16.52"></polygon><polygon class="cls-2" points="208.67 33.8 208.67 302.28 196.05 302.28 196.05 40.11 208.67 33.8"></polygon><polygon class="cls-2" points="150.86 245.13 150.86 302.28 59.15 302.28 59.15 287.99 150.86 245.13"></polygon><path class="cls-2" d="M172.12,51.74v250.54h-13.29V57.06c4.52-1.33,8.72-4.46,13.29-5.32Z"></path><polygon class="cls-2" points="226.62 25.82 226.62 302.28 214.65 302.28 214.65 30.48 226.62 25.82"></polygon><polygon class="cls-2" points="190.07 302.28 177.44 302.28 177.44 48.75 190.07 42.44 190.07 302.28"></polygon><path class="cls-1" d="M39.54,324.88c3.96.53,8.08,3.18,9.75,6.86,2,4.41,2.02,15.99-.78,20.06-.81,1.17-4.79,3.45-3.99,4.31,9.83,2.04,8.82,23.08,4.65,28.91-1.73,2.41-6.75,5.65-9.63,5.65h-19.6v-65.79c6.13.59,13.66-.8,19.6,0ZM29.91,334.18v17.28c8.45.67,10.37-.56,10.66-8.94s-2.88-8.72-10.66-8.34ZM40.54,364.09c-1.81-4.93-6.29-2.97-10.64-3.33v20.61c.88.02,1.78-.03,2.66,0,2.08.05,7.22.16,8.2-2.14,1.19-2.81.77-12.43-.23-15.14Z"></path><path class="cls-1" d="M419.67,324.88c11.19,1.58,12.82,16.64,10.11,25.4-1.25,4.03-2.89,4.09-5.37,6.45-1.69,1.61.97,1.27,1.91,2.02,7.82,6.25,2.47,23.12,4.98,31.93h-10.63c-1.5-7.07.04-14.48-.67-21.59s-3.73-6.54-9.96-6.32v27.91h-9.97v-65.79c6.09.61,13.71-.83,19.6,0ZM410.04,353.45c10.73,1.85,10.76-5.3,10-13.66-.57-6.33-4.71-5.78-10-5.62v19.27Z"></path><polygon class="cls-1" points="318.99 324.88 318.99 351.46 329.62 351.46 330.29 324.88 340.26 324.88 340.26 390.67 330.29 390.67 330.29 360.76 318.99 360.76 318.99 390.67 308.36 390.67 308.36 324.88 318.99 324.88"></polygon><path class="cls-1" d="M146.87,390.67v-65.79h19.6c4.58,0,9.56,5.75,10.67,9.93,1.82,6.87,1.78,39.64-.16,46.44-1.2,4.22-6.79,9.42-11.18,9.42h-18.94ZM156.84,381.37c4.11-.04,8.99,1.08,10.49-3.8-.58-12.12,1.26-25.84.17-37.77-.61-6.7-5.25-5.67-10.66-5.62v47.18Z"></path><path class="cls-1" d="M440.31,385.65c-1.72-2.29-2.7-4.9-3.01-7.94-.78-7.65-1.13-36.09.29-42.89,3.21-15.49,28.96-15.79,30.86,1.78.8,7.41,1.06,38.86-.77,44.92-3.47,11.49-20.5,13.25-27.36,4.13ZM457.05,334.35c-2.98-3.2-8.58-1.39-9.15,3.47-1.43,12.28,1.06,27.27.05,39.85,1.76,6.52,9.13,5.43,10.56-.66-.7-12.04,1.06-25.32.07-37.21-.12-1.38-.66-4.52-1.53-5.45Z"></path><path class="cls-1" d="M67.79,324.88v52.83c0,5.63,10.63,5.14,10.63.66v-53.5h9.97v54.16c0,.83-1.92,5.13-2.53,6.11-4.85,7.79-18.51,8.14-24.65,1.8-1.7-1.75-3.39-5.55-3.39-7.9v-54.16h9.97Z"></path><path class="cls-1" d="M283.77,380.7c2.95,2.24,8.64.88,8.64-2.33v-12.29h9.97v11.63c0,.55-1.3,4.82-1.66,5.65-3.33,7.73-12.29,9.1-19.74,7.11-6.12-1.64-8.79-7.32-9.2-13.39-.72-10.75-.89-28.63,0-39.26s8.56-15.84,19.33-13.97c4.51.78,7.75,3.54,9.6,7.68.28.62,1.66,4.72,1.66,4.99v10.3h-9.97c-.19-3.69.58-7.18-.66-10.63-2-5.55-9.04-4.09-9.93,1.7-1.09,7.13-.85,30.99-.04,38.5.21,1.99.39,3.11,1.99,4.32Z"></path><path class="cls-1" d="M382.46,324.88c6.77.95,11.1,7.17,11.65,13.6,1.38,16.12-2.08,26.89-20.62,24.94v27.25h-9.97v-65.79c5.89.59,13.24-.8,18.94,0ZM383.45,337.5c-1.5-4.69-5.93-3.08-9.97-3.33v19.94c.88.02,1.78-.02,2.66,0,2.32.05,5.57.34,6.94-2.03,1.56-2.69,1.34-11.55.37-14.59Z"></path><polygon class="cls-1" points="266.49 324.88 266.49 334.18 248.55 334.18 248.55 351.46 262.5 351.46 262.5 360.76 248.55 360.76 248.55 381.37 266.49 381.37 266.49 390.67 237.91 390.67 237.91 324.88 266.49 324.88"></polygon><polygon class="cls-2" points="150.86 238.48 59.15 281.02 59.15 268.39 150.86 226.52 150.86 238.48"></polygon><polygon class="cls-2" points="150.86 189.97 150.86 201.93 59.15 243.8 59.15 231.84 150.86 189.97"></polygon><polygon class="cls-2" points="150.86 172.03 150.86 183.33 59.15 225.19 59.15 214.23 150.86 172.03"></polygon><polygon class="cls-2" points="150.86 208.58 150.86 219.88 59.15 261.74 59.15 250.78 150.86 208.58"></polygon><path class="cls-1" d="M205.35,334.18c-1.55-.04-3.11.04-4.66,0v-9.31h31.9v9.3h-10.63v56.49h-9.97c-.36-17.25.49-34.6,0-51.84-.04-1.55.04-3.11,0-4.66-2.21-.04-4.44.07-6.65,0Z"></path><polygon class="cls-1" points="124.27 324.88 124.27 381.37 141.55 381.37 141.55 390.67 114.31 390.67 114.31 324.88 124.27 324.88"></polygon><rect class="cls-1" x="95.7" y="324.88" width="10.63" height="65.79"></rect><polygon class="cls-2" points="150.86 116.87 150.86 128.17 99.68 151.43 99.68 139.46 150.86 116.87"></polygon><polygon class="cls-2" points="150.86 153.42 150.86 164.38 99.68 187.98 99.68 177.01 150.86 153.42"></polygon><polygon class="cls-2" points="150.86 134.81 150.86 146.77 99.68 169.37 99.68 158.07 150.86 134.81"></polygon><path class="cls-2" d="M86.39,401.97l6.56.09,4.74,16.53v-16.61h4.65v31.23c-1.54-.19-4.73.6-5.66-.65l-5.63-20.62v21.27h-4.65v-31.23Z"></path><path class="cls-2" d="M215.32,401.97l6.56.09,4.74,16.53v-16.61h4.65v31.23c-1.54-.19-4.73.6-5.66-.65l-5.63-20.62v21.27h-4.65v-31.23Z"></path><path class="cls-2" d="M59.81,433.2v-31.23h10.3c.62,0,3.52,2.59,3.93,3.38,1.72,3.23,1.68,21.8-.26,24.89-.4.63-3.19,2.97-3.67,2.97h-10.3ZM65.13,406.62v21.93c2.1-.23,3.62,1,4.34-1.28s.61-19.91-.44-20.55c-.75-.46-2.85.09-3.89-.09Z"></path><polygon class="cls-2" points="202.03 401.97 202.03 414.59 206.68 414.59 206.68 401.97 212 401.97 212 433.2 206.68 433.2 206.68 419.25 202.03 419.25 202.03 433.2 196.71 433.2 196.71 401.97 202.03 401.97"></polygon><path class="cls-2" d="M10.3,401.97c4.14.89,4.88,7.19,4.03,10.68-.46,1.89-2.38,3.28-2.38,4.26,0,.3,1.47.67,2.16,1.84,1.61,2.72,1.59,8.32.12,11.08-.42.79-3.31,3.38-3.93,3.38H0v-31.23c3.01.43,7.53-.6,10.3,0ZM4.65,414.6c6.46,1.47,6.91-10,0-7.98v7.98ZM4.65,428.55c5.38.6,5.87-.57,5.35-5.69-.39-3.85-1.6-3.79-5.35-3.61v9.3Z"></path><path class="cls-2" d="M391.9,401.45c4.44-1.03,9.37.65,10.12,5.55.53,3.46.55,18.45-.11,21.73-1.26,6.27-11.27,7.08-14.08,1.76-1.55-2.92-1.46-18.91-.87-22.7.42-2.7,2.03-5.67,4.95-6.35ZM396.75,428.22v-21.27c0-1.22-3.77-1.72-4.52.8-.42,1.42-.42,18.25,0,19.67.62,2.11,4.01,2.45,4.52.8Z"></path><path class="cls-2" d="M300.38,427.55c-1.18,7.1-11.1,8.85-14.24,2.94-1.54-2.92-1.44-18.3-.97-22.13,1.45-11.89,17.51-8.12,15.21,3.58-.98-.16-5.09.23-5.32,0-.36-.36.7-4.76-.61-5.7-1.12-.8-3.12-.17-3.7,1.05s-.64,16.83-.36,18.97c.45,3.48,4.15,4.19,4.68,1.3.2-1.1.25-6.25.05-7.28-.15-.76-1.68-.13-1.96-.41-.4-.4.11-3.62-.08-4.61h7.31c-.44,3.77.6,8.71,0,12.3Z"></path><path class="cls-2" d="M384.12,433.2c-11.35,2.47.43-14.34-9.97-13.29v13.29h-4.65v-31.23h10.3c3.78,0,4.76,8.39,4.03,11.35-.41,1.65-2.45,3.51-2.32,4.18.1.53,2.61,2.72,2.61,4.08v11.63ZM374.15,415.26c6.52,1.63,6.9-10.84,0-8.65v8.65Z"></path><path class="cls-2" d="M120.29,428.22c-1.13,6.35-11.65,8.05-14.12,2.16-1.83-4.36-1.96-23.12.82-26.76,5.07-6.63,15.83.21,13.3,8.32-.91-.15-4.43.23-4.65,0-.2-.21.14-4.71-1.3-5.68s-2.87-.23-3.53,1.19c-.86,1.85-.78,14.69-.52,17.48.19,2.13,1.18,5.93,4.05,3.99,1.33-.9,1.69-8.64,1.3-9.01-.78-.74-3.72,2.11-2.67-4.65h7.31c-.48,3.92.66,9.26,0,12.96Z"></path><path class="cls-2" d="M405.38,433.2v-31.23h9.64c1.4,0,4.24,2.49,4.69,3.95.66,2.17.7,20.37.16,22.82-.39,1.74-3.2,4.46-4.84,4.46h-9.64ZM410.04,406.62v21.6c0,1.28,4.33,1.36,5.02-.94s.59-19.92-.46-20.57c-.8-.5-3.39.13-4.56-.09Z"></path><path class="cls-2" d="M22.6,401.97v25.59c0,1.51,4.65,2.42,4.65.66v-26.25h5.32v26.25c0,4.54-7.18,6.74-11.13,5.14-.93-.38-3.49-3.06-3.49-3.82v-27.58h4.65Z"></path><path class="cls-2" d="M239.73,401.46c4.32-.78,8.7.72,9.44,5.53.53,3.46.55,18.45-.11,21.73-1.42,7.06-13.36,6.85-14.43.12-.51-3.21-.55-20.16.1-23.08.51-2.29,2.78-3.9,5-4.3ZM239.24,407.62c-.83,4.93,0,14.41,0,19.94,0,2.45,4.47,2.3,5.18-.13.45-1.54.33-19.08-.2-20.14-.88-1.8-4.56-2.21-4.99.34Z"></path><path class="cls-2" d="M272.96,401.46c4.32-.78,8.7.72,9.44,5.53.53,3.46.55,18.45-.11,21.73-1.42,7.06-13.36,6.85-14.43.12-.51-3.21-.55-20.16.1-23.08.51-2.29,2.78-3.9,5-4.3ZM272.47,407.62c-.83,4.93,0,14.41,0,19.94,0,2.45,4.47,2.3,5.18-.13.45-1.54.33-19.08-.2-20.14-.88-1.8-4.56-2.21-4.99.34Z"></path><path class="cls-2" d="M427.98,401.97v24.26c0,4.13,5.32,3.17,5.32,1.33v-25.59h4.65v26.91c0,2.64-4.39,4.97-6.97,5.04-2.73.08-7.65-2.05-7.65-5.04v-26.91h4.65Z"></path><path class="cls-2" d="M184.75,428.22c.16.53,1.05.98,1.67,1.04,3.45.35,3.03-5.71,2.98-8.02,7.18-2.19,5.51,9.49,1.37,11.68-5.11,2.71-10.63.69-11.36-5.34-.52-4.35-.45-14.87-.02-19.32,1.18-12.15,17.91-7.64,14.66,4.36-.9-.14-4.46.21-4.66,0-.23-.24.31-5.28-1.29-6.35-1.05-.7-3.36-.16-3.36.7v21.27Z"></path><path class="cls-2" d="M342.25,410.61c-8.26.94-3.9-1.49-5.62-4.02-.64-.95-2.73-.95-3.39,0-3.11,4.53,5.72,10.04,7.55,13.78,7.23,14.71-14.21,19.84-13.56,4.17,5.78-1.73,4.5-1.08,5.22,2.87.63,3.48,5.08,2.77,4.46-2.44-.57-4.78-7.22-7.15-8.78-11.87-4.83-14.64,14.86-16.45,14.11-2.48Z"></path><path class="cls-2" d="M136.9,410.61c-7.09.86-3.36-1.29-5.25-3.72-2.88-3.7-5.91,1.3-2.06,6.71,4.07,5.72,8.47,5.15,7.32,14.64s-17.53,6.38-14.64-4.34c6.91-.82,3.55,1.04,5.43,4.21,2.35,3.95,5.9-1.31,2.85-6.17-1.85-2.94-5.37-4.33-7.07-8.22-6.22-14.23,15.02-18.09,13.42-3.11Z"></path><path class="cls-2" d="M483.8,410.61c-.4-.42,1.09-4.48-1.67-4.7-2.51-.2-3.32,2.08-2.86,4.21,1.25,5.82,10.43,7.37,9.71,16.57-.78,10.03-14.49,9.59-15.1.1-.2-3.11,2.67-4.02,4.65-2.6.46.33.93,8.78,4.67,4.09,3.54-4.45-6.51-10.56-8.17-14.54-2.9-6.95.78-14.17,8.97-12.29,3.9.89,6.78,8.58,3.46,9.16-.62.11-3.53.14-3.66,0Z"></path><path class="cls-2" d="M455.89,412.6h-5.32c1.03-2.97-.88-9.97-3.93-5.6-1.11,1.59-1.12,18.78-.23,20.72.71,1.54,2.86,2.3,3.86.86,1.12-1.62-.87-6.49,1.39-7.25,5.91-1.98,4.63,5.76,3.04,9.02-2.71,5.56-12.42,4.64-13.39-1.51-.67-4.25-.49-16.72-.07-21.26,1.06-11.5,17.81-6.41,14.65,5.02Z"></path><path class="cls-2" d="M325.64,401.97c1.19,6.77-4.09,4.26-8.64,4.65.21,1.26-.28,7.7,0,7.98.26.26,5.53-.19,6.65,0v4.66s-6.65,0-6.65,0v9.3c4.55.4,9.83-2.12,8.64,4.65h-13.96v-31.23h13.96Z"></path><path class="cls-2" d="M176.77,401.97v4.66s-7.98,0-7.98,0c.21,1.26-.28,7.7,0,7.98.26.26,5.53-.2,6.65,0,.86,5.84-2.11,4.69-6.65,4.65v9.3h7.98s0,4.65,0,4.65h-13.29v-31.23h13.29Z"></path><path class="cls-2" d="M356.87,420.57v12.63h-4.65v-31.23h9.64c.83,0,3.68,2.8,4.14,3.83,3.05,6.85-.28,16.57-9.13,14.77ZM356.87,415.92c5.42,1.11,5.21-2.7,4.68-7.01-.39-3.15-1.96-2.23-4.68-2.29v9.3Z"></path><path class="cls-2" d="M161.49,401.97c2,6.46-5.32,4.2-5.32,4.65v26.58h-5.32v-26.58h-5.32s0-4.65,0-4.65h15.95Z"></path><polygon class="cls-2" points="472.51 401.97 472.51 406.62 467.85 406.62 467.85 433.2 462.54 433.2 462.54 406.62 457.22 406.62 457.22 401.97 472.51 401.97"></polygon><polygon class="cls-2" points="257.85 401.97 257.85 428.55 265.83 428.55 265.83 433.2 252.53 433.2 252.53 401.97 257.85 401.97"></polygon><path class="cls-1" d="M204.02,352.79v9.3h-18.28c-.33,0-1.4,1.05-2.33.66v-9.97h20.6Z"></path><path class="cls-2" d="M49.18,401.97v26.58c4.55.4,9.83-2.12,8.64,4.65h-13.29v-31.23h4.65Z"></path><rect class="cls-2" x="77.75" y="401.97" width="5.32" height="31.23"></rect><rect class="cls-2" x="303.04" y="401.97" width="5.32" height="31.23"></rect><rect class="cls-2" x="35.89" y="401.97" width="4.65" height="31.23"></rect></svg> 